<svg width="98" height="140" viewBox="0 0 98 140" fill="none" xmlns="http://www.w3.org/2000/svg">
<path d="M97.2852 118.796V140H3.42383V121.906L47.8101 74.3159C52.2707 69.3527 55.7889 64.9863 58.3647 61.2168C60.9406 57.3844 62.7939 53.9604 63.9248 50.9448C65.1185 47.8664 65.7153 44.945 65.7153 42.1807C65.7153 38.0342 65.0243 34.4845 63.6421 31.5317C62.2599 28.5161 60.2181 26.1916 57.5166 24.5581C54.8779 22.9246 51.611 22.1079 47.7158 22.1079C43.5693 22.1079 39.9883 23.1131 36.9727 25.1235C34.0199 27.134 31.7581 29.9297 30.1875 33.5107C28.6797 37.0918 27.9258 41.144 27.9258 45.6675H0.690918C0.690918 37.5002 2.63851 30.0239 6.53369 23.2388C10.4289 16.3908 15.9261 10.9564 23.0254 6.93555C30.1247 2.85189 38.5433 0.810059 48.2812 0.810059C57.8936 0.810059 65.998 2.3807 72.5947 5.52197C79.2542 8.60042 84.2803 13.061 87.6729 18.9038C91.1283 24.6838 92.856 31.5946 92.856 39.6362C92.856 44.1597 92.1335 48.5889 90.6885 52.9238C89.2435 57.196 87.1702 61.4681 84.4688 65.7402C81.8301 69.9495 78.626 74.2217 74.8564 78.5566C71.0869 82.8916 66.909 87.3836 62.3228 92.0327L38.4805 118.796H97.2852Z" fill="url(#paint0_linear_2_88)"/>
<defs>
<linearGradient id="paint0_linear_2_88" x1="7.5" y1="27.5" x2="5" y2="148" gradientUnits="userSpaceOnUse">
<stop stop-color="#4765CC"/>
<stop offset="0.133056" stop-color="#4C5FC7"/>
<stop offset="0.804136" stop-color="#6644B6"/>
<stop offset="1" stop-color="#6E3CB8"/>
</linearGradient>
</defs>
</svg>
