<svg width="97" height="142" viewBox="0 0 97 142" fill="none" xmlns="http://www.w3.org/2000/svg">
<path d="M32.2241 59.6147H46.7368C51.3859 59.6147 55.2183 58.8294 58.2339 57.2588C61.2495 55.6253 63.4798 53.3636 64.9248 50.4736C66.4326 47.5208 67.1865 44.0968 67.1865 40.2017C67.1865 36.6834 66.4954 33.5736 65.1133 30.8721C63.7939 28.1077 61.7521 25.9717 58.9878 24.4639C56.2235 22.8932 52.7367 22.1079 48.5273 22.1079C45.1976 22.1079 42.1191 22.7676 39.292 24.0869C36.4648 25.4062 34.2031 27.2596 32.5068 29.647C30.8105 32.0343 29.9624 34.9243 29.9624 38.3169H2.72754C2.72754 30.7778 4.73796 24.2126 8.75879 18.6211C12.8424 13.0296 18.3083 8.66325 25.1562 5.52197C32.0042 2.3807 39.5433 0.810059 47.7734 0.810059C57.0716 0.810059 65.2075 2.31787 72.1812 5.3335C79.1548 8.2863 84.5892 12.6527 88.4844 18.4326C92.3796 24.2126 94.3271 31.3747 94.3271 39.9189C94.3271 44.2539 93.3219 48.4632 91.3115 52.5469C89.3011 56.5677 86.4111 60.2116 82.6416 63.4785C78.9349 66.6826 74.4115 69.2585 69.0713 71.2061C63.7311 73.0908 57.7313 74.0332 51.0718 74.0332H32.2241V59.6147ZM32.2241 80.2529V66.2114H51.0718C58.548 66.2114 65.1133 67.0596 70.7676 68.7559C76.4219 70.4521 81.1652 72.9023 84.9976 76.1064C88.8299 79.2477 91.7199 82.9858 93.6675 87.3208C95.6151 91.5929 96.5889 96.3363 96.5889 101.551C96.5889 107.959 95.3638 113.676 92.9136 118.702C90.4634 123.665 87.008 127.875 82.5474 131.33C78.1496 134.785 72.9979 137.424 67.0923 139.246C61.1867 141.005 54.7471 141.885 47.7734 141.885C41.9935 141.885 36.3078 141.099 30.7163 139.529C25.1877 137.895 20.1616 135.477 15.6382 132.272C11.1776 129.006 7.59652 124.922 4.89502 120.021C2.25635 115.058 0.937012 109.184 0.937012 102.399H28.1719C28.1719 105.917 29.0514 109.058 30.8105 111.823C32.5697 114.587 34.9884 116.755 38.0669 118.325C41.2082 119.896 44.695 120.681 48.5273 120.681C52.8623 120.681 56.569 119.896 59.6475 118.325C62.7887 116.692 65.1761 114.43 66.8096 111.54C68.5059 108.587 69.354 105.163 69.354 101.268C69.354 96.242 68.443 92.2212 66.6211 89.2056C64.7992 86.1271 62.1919 83.8654 58.7993 82.4204C55.4067 80.9754 51.3859 80.2529 46.7368 80.2529H32.2241Z" fill="url(#paint0_linear_2_119)"/>
<defs>
<linearGradient id="paint0_linear_2_119" x1="17.5" y1="22.5" x2="17.5" y2="136" gradientUnits="userSpaceOnUse">
<stop stop-color="#4B60C7"/>
<stop offset="0.211454" stop-color="#515AC0"/>
<stop offset="0.757709" stop-color="#6942B9"/>
<stop offset="1" stop-color="#6D3CB6"/>
</linearGradient>
</defs>
</svg>
